<svg width="1600" height="900" viewBox="0 0 1600 900" fill="none" xmlns="http://www.w3.org/2000/svg">
<defs>
<linearGradient id="loungeBg" x1="142" y1="120" x2="1452" y2="786" gradientUnits="userSpaceOnUse">
<stop stop-color="#0F172A"/>
<stop offset="0.42" stop-color="#1D4ED8"/>
<stop offset="1" stop-color="#F97316"/>
</linearGradient>
<linearGradient id="loungeGlass" x1="210" y1="172" x2="1374" y2="734" gradientUnits="userSpaceOnUse">
<stop stop-color="white" stop-opacity="0.22"/>
<stop offset="1" stop-color="white" stop-opacity="0.04"/>
</linearGradient>
</defs>
<rect width="1600" height="900" rx="40" fill="url(#loungeBg)"/>
<circle cx="1300" cy="184" r="210" fill="#FDE68A" fill-opacity="0.16"/>
<circle cx="280" cy="760" r="280" fill="#FDBA74" fill-opacity="0.14"/>
<path d="M0 702C154 648 352 612 530 648C730 690 898 818 1124 828C1282 836 1438 794 1600 710V900H0V702Z" fill="white" fill-opacity="0.08"/>
<rect x="122" y="116" width="1356" height="668" rx="34" fill="url(#loungeGlass)" stroke="white" stroke-opacity="0.12"/>
<rect x="188" y="186" width="574" height="352" rx="30" fill="white" fill-opacity="0.1"/>
<rect x="824" y="186" width="584" height="170" rx="30" fill="white" fill-opacity="0.1"/>
<rect x="824" y="390" width="584" height="110" rx="24" fill="white" fill-opacity="0.1"/>
<rect x="824" y="532" width="280" height="56" rx="28" fill="white"/>
<rect x="1124" y="532" width="220" height="56" rx="28" fill="white" fill-opacity="0.16"/>
<text x="230" y="246" fill="white" fill-opacity="0.84" font-family="Arial, sans-serif" font-size="24" font-weight="700" letter-spacing="3">LEADERSHIP LOUNGE</text>
<text x="230" y="336" fill="white" font-family="Arial, sans-serif" font-size="52" font-weight="700">Sunset Leadership Night</text>
<text x="230" y="402" fill="white" font-family="Arial, sans-serif" font-size="52" font-weight="700">Designed for Modern Event Pages</text>
<text x="230" y="482" fill="white" fill-opacity="0.8" font-family="Arial, sans-serif" font-size="24" font-weight="500">A visual sample for evening events, sponsor moments, community-led hospitality, and clean frontend storytelling.</text>
<text x="860" y="274" fill="white" font-family="Arial, sans-serif" font-size="26" font-weight="700">Hosted networking flow</text>
<text x="860" y="454" fill="white" font-family="Arial, sans-serif" font-size="26" font-weight="700">Sponsor lounge showcase</text>
</svg>
