<svg width="1280" height="640" viewBox="0 0 1280 640" fill="none" xmlns="http://www.w3.org/2000/svg" role="img" aria-labelledby="title desc">
  <title id="title">EventPro Tickets Plus for WooCommerce</title>
  <desc id="desc">Premium WooCommerce-powered event management and ticketing plugin banner for GitHub.</desc>
  <defs>
    <linearGradient id="bg" x1="120" y1="60" x2="1120" y2="580" gradientUnits="userSpaceOnUse">
      <stop stop-color="#F8FBFF"/>
      <stop offset="0.55" stop-color="#EEF4FF"/>
      <stop offset="1" stop-color="#F4FFFC"/>
    </linearGradient>
    <linearGradient id="accent" x1="0" y1="0" x2="1" y2="1">
      <stop stop-color="#1358DB"/>
      <stop offset="1" stop-color="#0D9488"/>
    </linearGradient>
    <filter id="shadow" x="0" y="0" width="1280" height="640" filterUnits="userSpaceOnUse" color-interpolation-filters="sRGB">
      <feDropShadow dx="0" dy="24" stdDeviation="36" flood-color="#12213A" flood-opacity="0.12"/>
    </filter>
  </defs>

  <rect width="1280" height="640" rx="36" fill="#F3F7FC"/>
  <g filter="url(#shadow)">
    <rect x="40" y="40" width="1200" height="560" rx="32" fill="url(#bg)"/>
    <rect x="40.5" y="40.5" width="1199" height="559" rx="31.5" stroke="#DDE6F1"/>
  </g>

  <circle cx="1120" cy="140" r="110" fill="#D7E6FF" opacity="0.8"/>
  <circle cx="1070" cy="220" r="160" fill="#EAF4FF" opacity="0.9"/>
  <circle cx="1180" cy="250" r="120" fill="#DDF7F2" opacity="0.8"/>

  <rect x="96" y="96" width="140" height="36" rx="18" fill="#E8F0FF"/>
  <text x="166" y="119" text-anchor="middle" fill="#1358DB" font-family="Inter, Arial, sans-serif" font-size="16" font-weight="700">WooCommerce</text>

  <rect x="250" y="96" width="126" height="36" rx="18" fill="#E7F8F4"/>
  <text x="313" y="119" text-anchor="middle" fill="#0D9488" font-family="Inter, Arial, sans-serif" font-size="16" font-weight="700">Ticketing</text>

  <rect x="388" y="96" width="118" height="36" rx="18" fill="#F2F5FB"/>
  <text x="447" y="119" text-anchor="middle" fill="#607089" font-family="Inter, Arial, sans-serif" font-size="16" font-weight="700">WordPress</text>

  <text x="96" y="200" fill="#6B7A90" font-family="Inter, Arial, sans-serif" font-size="18" font-weight="700" letter-spacing="0.12em">PREMIUM EVENT COMMERCE PLATFORM</text>
  <text x="96" y="266" fill="#0B1324" font-family="Manrope, Inter, Arial, sans-serif" font-size="52" font-weight="800">EventPro Tickets</text>
  <text x="96" y="320" fill="#0B1324" font-family="Manrope, Inter, Arial, sans-serif" font-size="52" font-weight="800">Plus</text>
  <text x="96" y="366" fill="#0B1324" font-family="Manrope, Inter, Arial, sans-serif" font-size="32" font-weight="700">for WooCommerce</text>
  <text x="96" y="410" fill="#607089" font-family="Inter, Arial, sans-serif" font-size="19" font-weight="500">Sell tickets through WooCommerce, manage attendees,</text>
  <text x="96" y="438" fill="#607089" font-family="Inter, Arial, sans-serif" font-size="19" font-weight="500">deliver PDF tickets, and launch polished event pages.</text>
  <text x="96" y="466" fill="#607089" font-family="Inter, Arial, sans-serif" font-size="19" font-weight="500">Built for a premium WordPress event workflow.</text>

  <rect x="96" y="510" width="180" height="52" rx="26" fill="url(#accent)"/>
  <text x="186" y="542" text-anchor="middle" fill="#FFFFFF" font-family="Inter, Arial, sans-serif" font-size="18" font-weight="700">Templates</text>

  <rect x="292" y="510" width="168" height="52" rx="26" fill="#FFFFFF"/>
  <rect x="292.5" y="510.5" width="167" height="51" rx="25.5" stroke="#D9E3F0"/>
  <text x="376" y="542" text-anchor="middle" fill="#243246" font-family="Inter, Arial, sans-serif" font-size="18" font-weight="700">Delivery</text>

  <g>
    <rect x="844" y="158" width="280" height="300" rx="28" fill="#FFFFFF" opacity="0.96"/>
    <rect x="844.5" y="158.5" width="279" height="299" rx="27.5" stroke="#DDE6F1"/>

    <text x="872" y="202" fill="#6B7A90" font-family="Inter, Arial, sans-serif" font-size="15" font-weight="700" letter-spacing="0.12em">TICKETING</text>
    <text x="872" y="244" fill="#0B1324" font-family="Manrope, Inter, Arial, sans-serif" font-size="35" font-weight="800">Reserve your</text>
    <text x="872" y="282" fill="#0B1324" font-family="Manrope, Inter, Arial, sans-serif" font-size="35" font-weight="800">spot</text>
    <rect x="872" y="374" width="108" height="58" rx="18" fill="#F7FAFF"/>
    <rect x="872.5" y="374.5" width="107" height="57" rx="17.5" stroke="#E2EAF4"/>
    <text x="888" y="399" fill="#243246" font-family="Inter, Arial, sans-serif" font-size="15" font-weight="700">Secure</text>
    <text x="888" y="419" fill="#607089" font-family="Inter, Arial, sans-serif" font-size="13" font-weight="500">WooCommerce</text>

    <rect x="992" y="374" width="108" height="58" rx="18" fill="#F5FFFB"/>
    <rect x="992.5" y="374.5" width="107" height="57" rx="17.5" stroke="#DDEFEA"/>
    <text x="1008" y="399" fill="#243246" font-family="Inter, Arial, sans-serif" font-size="15" font-weight="700">Attendees</text>
    <text x="1008" y="419" fill="#607089" font-family="Inter, Arial, sans-serif" font-size="13" font-weight="500">Check-in ready</text>
  </g>
</svg>
